<?xml version="1.0" encoding="utf-8"?>
<!-- Generator: Adobe Illustrator 20.1.0, SVG Export Plug-In . SVG Version: 6.00 Build 0)  -->
<svg version="1.1" id="Layer_1" xmlns="http://www.w3.org/2000/svg" xmlns:xlink="http://www.w3.org/1999/xlink" x="0px" y="0px"
	 viewBox="0 0 622.2 212.4" style="enable-background:new 0 0 622.2 212.4;" xml:space="preserve">
<style type="text/css">
	.st0{fill:#414042;}
	.st1{fill:#EF4136;}
</style>
<g>
	<g>
		<path class="st0" d="M29.7,180.3l-10,32.2h-1.4l-1.2-19.1h-0.1l-9.3,19.1H6.4l3.7-32.2l3.3-0.6l-3.5,23.7h0.1l8.1-16.6H19l1,16.6
			h0.1l6.6-23.7L29.7,180.3z"/>
		<path class="st0" d="M40,187.2h15.4l-0.6,2.8H42.6l-1.6,7.4h10.1l-0.6,2.8H40.4l-1.8,8.7h12.2l-0.6,2.8H34.8L40,187.2z"/>
		<path class="st1" d="M100.5,196.2c-3.2-2.1-5.2-3.6-4.3-8.3c0.9-4.3,4.5-8,9-8c4.4,0,5.9,3.2,5.9,7.1l-3.2,0.5
			c0-2.3-0.7-4.6-3.4-4.6c-3,0-4.6,2.4-5.2,5.1c-0.5,2.6-0.2,3.4,4.1,6.3c3.4,2.3,5.6,4.3,4.6,9.1c-1,5-4.5,8.9-9.8,8.9
			c-5.6,0-6.8-3.7-6.2-8.7l3.3-0.4c-0.3,3.5-0.1,6.1,3.7,6.1c2.7,0,5.1-1.8,5.9-5.6C105.8,199.5,103.4,198.1,100.5,196.2z"/>
		<path class="st1" d="M127.4,187.2l-3.6,16.8c-0.8,3.6-0.1,5.3,3.2,5.3c4,0,5.2-1.8,6-5.3l3.6-16.8h3.2l-3.9,18.3
			c-0.7,3.3-3.7,6.8-9.2,6.8c-5.3,0-7-3.4-6.2-7l3.9-18.1H127.4z"/>
		<path class="st1" d="M153.8,191.9L153.8,191.9l-5,20h-3.4l6.2-24.6h4.2l2.2,10.7l6.7-10.7h4.2l-4.3,24.6h-3.4l3.6-20h-0.1l-8.3,13
			L153.8,191.9z"/>
		<path class="st1" d="M182.1,191.9L182.1,191.9l-5,20h-3.4l6.2-24.6h4.2l2.2,10.7l6.7-10.7h4.2l-4.3,24.6h-3.4l3.6-20h-0.1l-8.3,13
			L182.1,191.9z"/>
		<path class="st1" d="M208.9,205.1l-3.9,7.3l-2.9-1.1l12.9-24.1h4.1l2.6,24.1l-3.4,1.1l-0.7-7.3H208.9z M216.2,190.9l-5.9,11.4h7
			L216.2,190.9z"/>
		<path class="st1" d="M238.3,187.2h8.4c4.1,0,7,1.9,6,6.7c-0.7,3-3.3,6-6.5,6.9l3.9,10l-3.1,1.7l-3.9-11.2h-4.6l-2.2,10.5H233
			L238.3,187.2z M243.2,198.4c3.1,0,5.5-1.7,6.1-4.5c0.5-2.2-0.5-3.9-3.4-3.9h-5.1l-1.8,8.4H243.2z"/>
		<path class="st1" d="M264.1,209h3.5l4-19h-3.5l0.6-2.8h10.1l-0.6,2.8h-3.5l-4,19h3.5l-0.6,2.8h-10.1L264.1,209z"/>
		<path class="st1" d="M305.2,190h-11.5l0.6-2.8h16.8L293.6,209h13.2l-0.6,2.8h-18.5L305.2,190z"/>
		<path class="st1" d="M323.8,187.2h15.4l-0.6,2.8h-12.2l-1.6,7.4h10.1l-0.6,2.8h-10.1l-1.8,8.7h12.2l-0.6,2.8h-15.4L323.8,187.2z"
			/>
		<path class="st0" d="M386.6,183.1h-6.8l0.6-2.8h16.6l-0.6,2.8h-6.7l-6.1,28.7h-3.2L386.6,183.1z"/>
		<path class="st0" d="M407.6,187.2h3.2l-2.2,10.2h9.7l2.2-10.2h3.2l-5.2,24.6h-3.2l2.5-11.6H408l-2.5,11.6h-3.2L407.6,187.2z"/>
		<path class="st0" d="M437.3,187.2h15.4L452,190h-12.2l-1.6,7.4h10.1l-0.6,2.8h-10.1l-1.8,8.7H448l-0.6,2.8H432L437.3,187.2z"/>
		<path class="st0" d="M512.1,180.3l-10,32.2h-1.4l-1.2-19.1h-0.1l-9.3,19.1h-1.4l3.7-32.2l3.3-0.6l-3.5,23.7h0.1l8.1-16.6h0.9
			l1,16.6h0.1l6.6-23.7L512.1,180.3z"/>
		<path class="st0" d="M535.3,199.5c-0.4,2-2.8,12.7-11.4,12.7c-4,0-8.1-2.8-6.1-12.7c2.1-9.8,7.4-12.8,11.5-12.8
			C533.2,186.8,537.4,189.6,535.3,199.5z M521.1,199.5c-0.8,3.6-1.4,9.7,3.4,9.7c4.8,0,6.8-6.1,7.5-9.7c0.8-3.6,1.4-9.8-3.4-9.8
			C523.8,189.7,521.9,195.9,521.1,199.5z"/>
		<path class="st0" d="M550.4,187.2h8.4c4.1,0,7,1.9,6,6.7c-0.7,3-3.3,6-6.5,6.9l3.9,10l-3.1,1.7l-3.9-11.2h-4.6l-2.2,10.5h-3.2
			L550.4,187.2z M555.3,198.4c3.1,0,5.5-1.7,6.1-4.5c0.5-2.2-0.5-3.9-3.4-3.9h-5.1l-1.8,8.4H555.3z"/>
		<path class="st0" d="M579.8,187.2h3.2l-4.6,21.8h12.9l-0.6,2.8h-16.1L579.8,187.2z"/>
		<path class="st0" d="M605.7,187.2h8.2c7,0,9.6,2.9,7.6,12c-1.7,7.7-4,12.6-12.9,12.6h-8.2l0.6-2.8h2.6l4-19h-2.6L605.7,187.2z
			 M606.8,209h3.4c4.2,0,6.5-2.4,8-9.5c1.6-7.6-0.1-9.5-4.1-9.5h-3.3L606.8,209z"/>
	</g>
	<path class="st0" d="M132,157.7V0h13.9v71.4h48.6V0h13.9v157.7h-13.9V81.1h-48.6v76.6H132z"/>
	<path class="st0" d="M232.2,111V46.8c0-5.4,0.4-10.4,1.2-14.9c0.8-4.5,2.2-8.8,4.2-12.8c2-4,4.4-7.4,7.4-10.2
		c3-2.8,6.8-4.9,11.5-6.5c4.6-1.6,10-2.4,15.9-2.4c6,0,11.3,0.8,15.9,2.4C293,4,296.9,6.2,299.8,9c3,2.8,5.5,6.1,7.4,10.2
		c2,4,3.3,8.3,4.2,12.8c0.8,4.5,1.2,9.5,1.2,14.9V111c0,31.2-13.4,46.8-40.2,46.8C245.6,157.8,232.2,142.2,232.2,111z M298.7,114
		V43.7c0-21.9-8.8-32.9-26.3-32.9c-17.5,0-26.3,11-26.3,32.9V114c0,22,8.8,32.9,26.3,32.9C290,146.9,298.7,136,298.7,114z"/>
	<path class="st0" d="M336.5,157.7V0h42.1c5.3,0,10,0.7,14,2.2c4,1.5,7.3,3.4,9.8,5.8c2.5,2.4,4.5,5.4,6,9c1.5,3.6,2.6,7.3,3.2,11.1
		c0.6,3.8,0.9,8,0.9,12.7c0,20.1-7.3,32.8-22,38.2l24.4,78.7h-14.8l-23-77h-26.5v77H336.5z M350.4,69.6h28c4,0,7.3-0.8,10.1-2.4
		c2.7-1.6,4.8-3.8,6.2-6.8c1.4-2.9,2.3-6,2.9-9.2c0.5-3.2,0.8-6.8,0.8-10.9c0-3.4-0.2-6.4-0.5-9.1c-0.3-2.7-0.9-5.3-1.8-7.9
		c-0.9-2.6-2.1-4.7-3.5-6.5c-1.5-1.7-3.4-3.1-5.8-4.2c-2.4-1-5.2-1.6-8.3-1.6h-28V69.6z"/>
	<path class="st0" d="M448.3,157.7V11.2h-30.7V0h75.6v11.2h-31v146.5H448.3z"/>
	<path class="st0" d="M503.2,157.7V0h13.9v157.7H503.2z"/>
	<path class="st0" d="M543.9,157.7V0H586c5.3,0,10,0.7,14,2.2c4,1.5,7.3,3.4,9.8,5.8c2.5,2.4,4.5,5.4,6,9c1.5,3.6,2.6,7.3,3.2,11.1
		c0.6,3.8,0.9,8,0.9,12.7c0,20.1-7.3,32.8-22,38.2l24.4,78.7h-14.8l-23-77h-26.5v77H543.9z M557.9,69.6h28c4,0,7.3-0.8,10.1-2.4
		c2.7-1.6,4.8-3.8,6.2-6.8c1.4-2.9,2.3-6,2.9-9.2c0.5-3.2,0.8-6.8,0.8-10.9c0-3.4-0.2-6.4-0.5-9.1c-0.3-2.7-0.9-5.3-1.8-7.9
		c-0.9-2.6-2.1-4.7-3.5-6.5c-1.5-1.7-3.4-3.1-5.8-4.2c-2.4-1-5.2-1.6-8.3-1.6h-28V69.6z"/>
	<rect x="503.2" class="st1" width="13.9" height="11.3"/>
	<path class="st1" d="M59,48.4L59,48.4l0,13.3h0c22.9,0,41.4,18.5,41.4,41.4v0c0,22.9-18.5,41.4-41.4,41.4h0v13.3h0
		c30.2,0,54.7-24.5,54.7-54.7v0C113.8,72.9,89.3,48.4,59,48.4z"/>
	<path class="st1" d="M54.7,109.8L54.7,109.8l0-13.3h0c-22.9,0-41.4-18.5-41.4-41.4v0c0-22.9,18.5-41.4,41.4-41.4h0V0.4h0
		C24.5,0.4,0,24.9,0,55.1v0C0,85.3,24.5,109.8,54.7,109.8z"/>
	<rect x="54.7" y="0.4" class="st0" width="51" height="13.3"/>
	<rect x="8" y="144.6" class="st0" width="51" height="13.3"/>
</g>
</svg>
